<svg width="394" height="216" viewBox="0 0 394 216" fill="none" xmlns="http://www.w3.org/2000/svg">
<ellipse cx="50.5" cy="18.5" rx="15.5" ry="15.5" transform="rotate(90 50.5 18.5)" fill="white"/>
<rect x="119.092" width="27" height="27" transform="rotate(45 119.092 0)" fill="#4CF4FF"/>
<path d="M100.931 212.092C101.172 213.323 101.292 213.939 101.675 214.355C101.8 214.49 101.943 214.608 102.099 214.704C102.581 215 103.209 215 104.464 215H134.5L102.076 51.8981C101.832 50.6705 101.71 50.0568 101.327 49.6425C101.203 49.5077 101.06 49.3907 100.904 49.2948C100.423 49 99.7968 49 98.5452 49H69L100.931 212.092Z" fill="white"/>
<path d="M136 49H169L136.32 213.39C136.134 214.326 135.313 215 134.358 215H103.5L136 49Z" fill="#4CF4FF"/>
<path d="M31.9306 212.092C32.1717 213.323 32.2923 213.939 32.6753 214.355C32.7999 214.49 32.9426 214.608 33.0994 214.704C33.581 215 34.2085 215 35.4635 215H65.5L32.5 49H0L31.9306 212.092Z" fill="white"/>
<path d="M66.6837 50.6157C66.8674 49.6771 67.69 49 68.6464 49H100L67.3201 213.39C67.134 214.326 66.3127 215 65.3585 215H34.5L66.6837 50.6157Z" fill="#4CF4FF"/>
<path d="M176.92 144.576C173.49 144.576 170.67 143.585 168.46 141.604C166.326 139.546 165.259 137.031 165.259 134.058C165.259 131.01 166.326 128.495 168.46 126.513C170.67 124.455 173.49 123.426 176.92 123.426C180.274 123.426 183.017 124.455 185.151 126.513C187.362 128.495 188.467 131.01 188.467 134.058C188.467 137.031 187.362 139.546 185.151 141.604C183.017 143.585 180.274 144.576 176.92 144.576ZM186.638 151.207V215H167.088V151.207H186.638ZM220.354 160.239C222.183 157.266 224.813 154.865 228.243 153.036C231.672 151.207 235.598 150.292 240.018 150.292C245.277 150.292 250.041 151.626 254.309 154.294C258.577 156.961 261.93 160.772 264.369 165.726C266.884 170.68 268.142 176.435 268.142 182.989C268.142 189.544 266.884 195.336 264.369 200.366C261.93 205.321 258.577 209.169 254.309 211.913C250.041 214.581 245.277 215.915 240.018 215.915C235.521 215.915 231.596 215.038 228.243 213.285C224.889 211.456 222.26 209.055 220.354 206.083V215H200.805V130.4H220.354V160.239ZM248.249 182.989C248.249 178.111 246.878 174.301 244.134 171.557C241.466 168.737 238.151 167.327 234.188 167.327C230.301 167.327 226.985 168.737 224.241 171.557C221.574 174.377 220.24 178.226 220.24 183.103C220.24 187.981 221.574 191.83 224.241 194.65C226.985 197.47 230.301 198.88 234.188 198.88C238.075 198.88 241.39 197.47 244.134 194.65C246.878 191.754 248.249 187.867 248.249 182.989ZM297.947 161.839C300.234 158.333 303.092 155.589 306.522 153.608C309.952 151.55 313.762 150.521 317.954 150.521V171.214H312.581C307.703 171.214 304.045 172.281 301.606 174.415C299.167 176.473 297.947 180.131 297.947 185.39V215H278.398V151.207H297.947V161.839ZM356.337 215.915C350.087 215.915 344.447 214.581 339.417 211.913C334.463 209.246 330.538 205.435 327.641 200.481C324.821 195.527 323.411 189.734 323.411 183.103C323.411 176.549 324.86 170.795 327.756 165.841C330.652 160.81 334.615 156.961 339.645 154.294C344.676 151.626 350.316 150.292 356.565 150.292C362.815 150.292 368.455 151.626 373.485 154.294C378.516 156.961 382.479 160.81 385.375 165.841C388.271 170.795 389.72 176.549 389.72 183.103C389.72 189.658 388.233 195.451 385.261 200.481C382.365 205.435 378.363 209.246 373.257 211.913C368.227 214.581 362.587 215.915 356.337 215.915ZM356.337 198.995C360.071 198.995 363.234 197.623 365.826 194.879C368.493 192.135 369.827 188.21 369.827 183.103C369.827 177.997 368.531 174.072 365.94 171.328C363.425 168.584 360.3 167.212 356.565 167.212C352.755 167.212 349.592 168.584 347.077 171.328C344.561 173.996 343.304 177.921 343.304 183.103C343.304 188.21 344.523 192.135 346.962 194.879C349.477 197.623 352.602 198.995 356.337 198.995Z" fill="white"/>
</svg>
