<svg width="169" height="215" viewBox="0 0 169 215" fill="none" xmlns="http://www.w3.org/2000/svg">
<ellipse cx="50.5" cy="18.5" rx="15.5" ry="15.5" transform="rotate(90 50.5 18.5)" fill="#3D3D3D"/>
<rect x="119.092" y="1.52588e-05" width="27" height="27" transform="rotate(45 119.092 1.52588e-05)" fill="#4CF4FF"/>
<path d="M100.931 212.092C101.172 213.323 101.292 213.939 101.675 214.355C101.8 214.49 101.943 214.608 102.099 214.704C102.581 215 103.209 215 104.464 215H134.5L102.076 51.8981C101.832 50.6705 101.71 50.0568 101.327 49.6425C101.203 49.5077 101.06 49.3907 100.904 49.2948C100.423 49 99.7968 49 98.5452 49H69L100.931 212.092Z" fill="#3D3D3D"/>
<path d="M136 49H169L136.32 213.39C136.134 214.326 135.313 215 134.358 215H103.5L136 49Z" fill="#4CF4FF"/>
<path d="M31.9306 212.092C32.1717 213.323 32.2923 213.939 32.6753 214.355C32.7999 214.49 32.9426 214.608 33.0994 214.704C33.581 215 34.2085 215 35.4635 215H65.5L32.5 49H0L31.9306 212.092Z" fill="#3D3D3D"/>
<path d="M66.6837 50.6157C66.8674 49.6772 67.69 49 68.6464 49H100L67.3201 213.39C67.134 214.326 66.3127 215 65.3585 215H34.5L66.6837 50.6157Z" fill="#4CF4FF"/>
</svg>
